<?xml version="1.0"?>
<svg width="64" height="80" xmlns="http://www.w3.org/2000/svg" xmlns:svg="http://www.w3.org/2000/svg" enable-background="new 0 0 64 64" version="1.1" xml:space="preserve">
 <g class="layer">
  <title>Layer 1</title>
  <g id="svg_1">
   <g id="svg_2">
    <path d="m56,21l-32.7,0c-0.7,0 -1.3,-0.6 -1.3,-1.3s0.6,-1.3 1.3,-1.3l32.7,0c0.7,0 1.3,0.6 1.3,1.3s-0.6,1.3 -1.3,1.3z" id="svg_3"/>
   </g>
   <g id="svg_4">
    <path d="m13.1,21l-5.1,0c-0.7,0 -1.3,-0.6 -1.3,-1.3s0.6,-1.3 1.3,-1.3l5.1,0c0.7,0 1.3,0.6 1.3,1.3s-0.5,1.3 -1.3,1.3z" id="svg_5"/>
   </g>
   <g id="svg_6">
    <path d="m56,33.3l-8.6,0c-0.7,0 -1.3,-0.6 -1.3,-1.3c0,-0.7 0.6,-1.3 1.3,-1.3l8.6,0c0.7,0 1.3,0.6 1.3,1.3c0,0.7 -0.6,1.3 -1.3,1.3z" id="svg_7"/>
   </g>
   <g id="svg_8">
    <path d="m37.2,33.3l-29.2,0c-0.7,0 -1.3,-0.6 -1.3,-1.3c0,-0.7 0.6,-1.3 1.3,-1.3l29.2,0c0.7,0 1.3,0.6 1.3,1.3c0,0.7 -0.6,1.3 -1.3,1.3z" id="svg_9"/>
   </g>
   <g id="svg_10">
    <path d="m56,45.7l-32.7,0c-0.7,0 -1.3,-0.6 -1.3,-1.3c0,-0.7 0.6,-1.3 1.3,-1.3l32.7,0c0.7,0 1.3,0.6 1.3,1.3c0,0.7 -0.6,1.3 -1.3,1.3z" id="svg_11"/>
   </g>
   <g id="svg_12">
    <path d="m13.1,45.7l-5.1,0c-0.7,0 -1.3,-0.6 -1.3,-1.3c0,-0.8 0.6,-1.4 1.3,-1.4l5.1,0c0.7,0 1.3,0.6 1.3,1.3c0.1,0.8 -0.5,1.4 -1.3,1.4z" id="svg_13"/>
   </g>
   <g id="svg_14">
    <path d="m18.2,26.1c-3.5,0 -6.4,-2.9 -6.4,-6.4s2.9,-6.4 6.4,-6.4s6.4,2.9 6.4,6.4s-2.8,6.4 -6.4,6.4zm0,-10.2c-2.1,0 -3.8,1.7 -3.8,3.8c0,2.1 1.7,3.8 3.8,3.8s3.8,-1.7 3.8,-3.8c0,-2.1 -1.7,-3.8 -3.8,-3.8z" id="svg_15"/>
   </g>
   <g id="svg_16">
    <path d="m42.3,38.4c-3.5,0 -6.4,-2.9 -6.4,-6.4s2.9,-6.4 6.4,-6.4c3.5,0 6.4,2.9 6.4,6.4s-2.8,6.4 -6.4,6.4zm0,-10.2c-2.1,0 -3.8,1.7 -3.8,3.8c0,2.1 1.7,3.8 3.8,3.8s3.8,-1.7 3.8,-3.8c0,-2.1 -1.7,-3.8 -3.8,-3.8z" id="svg_17"/>
   </g>
   <g id="svg_18">
    <path d="m18.2,50.8c-3.5,0 -6.4,-2.9 -6.4,-6.4c0,-3.6 2.9,-6.4 6.4,-6.4s6.4,2.9 6.4,6.4c0.1,3.5 -2.8,6.4 -6.4,6.4zm0,-10.2c-2.1,0 -3.8,1.7 -3.8,3.8c0,2.1 1.7,3.8 3.8,3.8s3.8,-1.7 3.8,-3.8c0,-2.1 -1.7,-3.8 -3.8,-3.8z" id="svg_19"/>
   </g>
  </g>
 </g>
</svg>